<?xml version="1.0" standalone="no"?>
<!DOCTYPE svg PUBLIC "-//W3C//DTD SVG 1.1//EN" "http://www.w3.org/Graphics/SVG/1.1/DTD/svg11.dtd" >
<svg xmlns="http://www.w3.org/2000/svg">
<metadata>
<json>
<![CDATA[
{
	"fontFamily": "NextSSR",
	"majorVersion": 1,
	"minorVersion": 2,
	"designer": "Nesar Ahmed",
	"designerURL": "https://github.com/NesarAhmedRazon",
	"version": "Version 1.2",
	"fontId": "NextSSR",
	"psName": "NextSSR",
	"subFamily": "Regular",
	"fullName": "NextSSR",
	"description": "Font generated by IcoMoon."
}
]]>
</json>
</metadata>
<defs>
<font id="NextSSR" horiz-adv-x="512">
<font-face units-per-em="512" ascent="480" descent="-32" />
<missing-glyph horiz-adv-x="512" />
<glyph unicode="&#x20;" horiz-adv-x="256" d="" />
<glyph unicode="&#xe900;" d="M512 213.333c0-141.385-114.615-256-256-256s-256 114.615-256 256c0 141.385 114.615 256 256 256s256-114.615 256-256z" />
<glyph unicode="&#xe901;" d="M156.587 394.24c0 0 72.106 20.48 81.493 2.56 9.814-17.92-47.786-66.56-47.786-66.56s41.814-62.293 27.733-77.226c-14.080-14.506-77.654 24.746-77.654 24.746s-46.080-58.88-64.427-49.92c-18.346 8.96-0.427 81.92-0.427 81.92s-70.4 26.026-67.413 46.080c2.986 20.054 77.653 25.6 77.653 25.6s2.56 75.094 23.040 78.507c19.626 3.84 47.786-65.707 47.786-65.707z" />
<glyph unicode="&#xe902;" d="M355.413 394.24c0 0-72.106 20.48-81.493 2.56-9.813-17.92 47.786-66.56 47.786-66.56s-41.813-62.293-27.733-77.226c14.080-14.506 77.654 24.746 77.654 24.746s46.080-59.307 64.426-50.346c18.346 8.96 0.426 81.92 0.426 81.92s70.4 26.026 67.413 46.080c-2.986 20.054-77.654 25.6-77.654 25.6s-2.56 75.947-22.613 79.36c-20.053 3.413-48.214-66.134-48.214-66.134z" />
<glyph unicode="&#xe903;" d="M384.853 186.453c-27.733-6.4-75.094-14.933-128.853-14.933s-100.694 8.534-128.853 14.933c-14.080 3.413-26.453-8.96-24.32-23.040 8.106-46.933 38.4-132.267 152.746-132.267s144.64 85.334 152.746 132.267c3.413 14.080-9.387 26.454-23.466 23.040z" />
<glyph unicode="&#xe904;" d="M256.426 97.707c-72.534 0-107.52 31.147-120.746 48.214-2.987 3.413 0.427 8.534 4.694 7.68 17.92-3.84 56.746-10.24 116.053-10.24 62.293 0 99.413 6.4 116.48 10.24 4.267 0.853 7.68-3.84 5.12-7.68-12.8-17.067-46.507-48.214-121.6-48.214z" />
<glyph unicode="&#xe905;" glyph-name="TallyfyIcon" data-tags="Tallyfy_icon" d="M147.048 199.045h-53.583l-57.156 46.439c-3.572 3.572-3.572 7.144 3.572 3.572l96.45-25.005 10.716-25.005zM168.481 159.75l-21.433 39.295h-132.173c-7.144 0-7.144-3.572 0-3.572l135.744-60.728 92.878-125.027-75.016 150.033zM243.498 6.145v0 0zM497.125 388.371l-85.733 32.151-175.038-221.477-117.883 78.589c-7.144 3.572-7.144 0-7.144-7.144l132.173-264.344 46.439 100.022 128.599 275.060h78.589c7.144 3.572 7.144 3.572 0 7.144z" />
<glyph unicode="&#xe906;" glyph-name="Boxes" data-tags="Boxes" d="M497.778 184.889h-71.111v-85.334l-28.445 18.933-28.445-18.933v85.334h-71.111c-7.822 0-14.222-6.4-14.222-14.222v-170.666c0-7.822 6.4-14.222 14.222-14.222h199.111c7.822 0 14.222 6.4 14.222 14.222v170.667c0 7.822-6.4 14.222-14.222 14.222zM156.445 241.778h199.111c7.822 0 14.222 6.4 14.222 14.222v170.666c0 7.822-6.4 14.222-14.222 14.222h-71.111v-85.334l-28.445 18.933-28.445-18.933v85.334h-71.111c-7.822 0-14.222-6.4-14.222-14.222v-170.666c0-7.822 6.4-14.222 14.222-14.222zM213.333 184.889h-71.111v-85.334l-28.445 18.933-28.445-18.933v85.334h-71.111c-7.822 0-14.222-6.4-14.222-14.222v-170.666c0-7.822 6.4-14.222 14.222-14.222h199.111c7.822 0 14.222 6.4 14.222 14.222v170.667c0 7.822-6.4 14.222-14.222 14.222z" />
<glyph unicode="&#xe907;" glyph-name="GraduationCap" data-tags="GraduationCap" d="M497.872 295.573l-223.152 68.56c-12.16 3.736-25.28 3.736-37.432 0l-223.16-68.56c-18.832-5.784-18.832-30.688 0-36.472l38.904-11.952c-8.536-10.552-13.784-23.424-14.304-37.52-7.704-4.416-13.128-12.384-13.128-21.896 0-8.624 4.544-15.88 11.088-20.52l-20.424-91.904c-1.776-7.992 4.304-15.576 12.488-15.576h44.888c8.192 0 14.272 7.584 12.496 15.576l-20.424 91.904c6.544 4.64 11.088 11.896 11.088 20.52 0 9.256-5.176 17-12.528 21.496 0.608 12.016 6.752 22.64 16.552 29.376l156.456-48.072c7.248-2.224 21.152-5 37.432 0l223.16 68.56c18.84 5.792 18.84 30.688 0 36.48zM282.232 166.061c-22.824-7.008-42.272-3.136-52.472 0l-116.016 35.64-11.344-90.768c0-28.28 68.768-51.2 153.6-51.2s153.6 22.92 153.6 51.2l-11.344 90.776-116.024-35.648z" />
<glyph unicode="&#xe908;" glyph-name="HeadSet" data-tags="HeadSet" d="M192 261.333c0 17.67-14.33 32-32 32h-16c-35.35 0-64-28.65-64-64v-48c0-35.35 28.65-64 64-64h16c17.67 0 32 14.33 32 32v112zM368 117.333c35.35 0 64 28.65 64 64v48c0 35.35-28.65 64-64 64h-16c-17.67 0-32-14.33-32-32v-112c0-17.67 14.33-32 32-32h16zM256 469.333c-142.82 0-251.42-118.83-256-256v-16c0-8.84 7.16-16 16-16h16c8.84 0 16 7.16 16 16v16c0 114.69 93.31 208 208 208s208-93.31 208-208h-0.12c0.080-2.43 0.12-165.72 0.12-165.72 0-23.35-18.93-42.28-42.28-42.28h-101.72c0 26.51-21.49 48-48 48h-32c-26.51 0-48-21.49-48-48s21.49-48 48-48h181.72c49.86 0 90.28 40.42 90.28 90.28v165.72c-4.58 137.17-113.18 256-256 256z" />
<glyph unicode="&#xe909;" glyph-name="Users" data-tags="Users" d="M76.8 238.933c28.24 0 51.2 22.96 51.2 51.2s-22.96 51.2-51.2 51.2-51.2-22.96-51.2-51.2 22.96-51.2 51.2-51.2zM435.2 238.933c28.24 0 51.2 22.96 51.2 51.2s-22.96 51.2-51.2 51.2-51.2-22.96-51.2-51.2 22.96-51.2 51.2-51.2zM460.8 213.333h-51.2c-14.080 0-26.8-5.68-36.080-14.88 32.24-17.68 55.12-49.6 60.080-87.52h52.8c14.16 0 25.6 11.44 25.6 25.6v25.6c0 28.24-22.96 51.2-51.2 51.2zM256 213.333c49.52 0 89.6 40.080 89.6 89.6s-40.080 89.6-89.6 89.6-89.6-40.080-89.6-89.6 40.080-89.6 89.6-89.6zM317.44 187.733h-6.64c-16.64-8-35.12-12.8-54.8-12.8s-38.080 4.8-54.8 12.8h-6.64c-50.88 0-92.16-41.28-92.16-92.16v-23.040c0-21.2 17.2-38.4 38.4-38.4h230.4c21.2 0 38.4 17.2 38.4 38.4v23.040c0 50.88-41.28 92.16-92.16 92.16zM138.48 198.453c-9.28 9.2-22 14.88-36.080 14.88h-51.2c-28.24 0-51.2-22.96-51.2-51.2v-25.6c0-14.16 11.44-25.6 25.6-25.6h52.72c5.040 37.92 27.92 69.84 60.16 87.52z" />
<glyph unicode="&#xe90d;" glyph-name="ListParagraph" data-tags="paragraph list" d="M463.849 405.155h-305.323c-10.080 0-18.346 8.266-18.346 18.346v0c0 10.080 8.266 18.346 18.346 18.346h305.323c10.080 0 18.346-8.266 18.346-18.346v0c0-10.080-8.266-18.346-18.346-18.346zM475.541 365.037h-328.709c-3.629 0-6.653 3.024-6.653 6.653v0c0 3.629 3.024 6.653 6.653 6.653h328.709c3.629 0 6.653-3.024 6.653-6.653v0c0-3.629-3.024-6.653-6.653-6.653zM475.541 331.672h-328.709c-3.629 0-6.653 3.024-6.653 6.653v0c0 3.629 3.024 6.653 6.653 6.653h328.709c3.629 0 6.653-3.024 6.653-6.653v0c0-3.629-3.024-6.653-6.653-6.653zM475.541 298.207h-328.709c-3.629 0-6.653 3.024-6.653 6.653v0c0 3.629 3.024 6.653 6.653 6.653h328.709c3.629 0 6.653-3.024 6.653-6.653v0c0-3.629-3.024-6.653-6.653-6.653zM359.017 264.842h-212.184c-3.629 0-6.653 3.024-6.653 6.653v0c0 3.629 3.024 6.653 6.653 6.653h212.184c3.629 0 6.653-3.024 6.653-6.653v0c0-3.629-3.024-6.653-6.653-6.653zM273.538 231.477h-126.706c-3.629 0-6.653 3.024-6.653 6.653v0c0 3.629 3.024 6.653 6.653 6.653h126.706c3.629 0 6.653-3.024 6.653-6.653v0c0-3.73-3.024-6.653-6.653-6.653zM71.636 381.77v0c-22.982 0-41.832 18.85-41.832 41.832v0c0 22.882 18.85 41.731 41.832 41.731v0c22.982 0 41.832-18.85 41.832-41.832v0c-0.101-22.982-18.85-41.731-41.832-41.731zM463.849 135.011h-305.323c-10.080 0-18.346 8.266-18.346 18.346v0c0 10.080 8.266 18.346 18.346 18.346h305.323c10.080 0 18.346-8.266 18.346-18.346v0c0-9.979-8.266-18.346-18.346-18.346zM475.541 94.994h-328.709c-3.629 0-6.653 3.024-6.653 6.653v0c0 3.629 3.024 6.653 6.653 6.653h328.709c3.629 0 6.653-3.024 6.653-6.653v0c0-3.629-3.024-6.653-6.653-6.653zM475.541 61.528h-328.709c-3.629 0-6.653 3.024-6.653 6.653v0c0 3.629 3.024 6.653 6.653 6.653h328.709c3.629 0 6.653-3.024 6.653-6.653v0c0-3.629-3.024-6.653-6.653-6.653zM475.541 28.163h-328.709c-3.629 0-6.653 3.024-6.653 6.653v0c0 3.629 3.024 6.653 6.653 6.653h328.709c3.629 0 6.653-3.024 6.653-6.653v0c0-3.629-3.024-6.653-6.653-6.653zM359.017-5.302h-212.184c-3.629 0-6.653 3.024-6.653 6.653v0c0 3.629 3.024 6.653 6.653 6.653h212.184c3.629 0 6.653-3.024 6.653-6.653v0c0-3.629-3.024-6.653-6.653-6.653zM273.538-38.667h-126.706c-3.629 0-6.653 3.024-6.653 6.653v0c0 3.629 3.024 6.653 6.653 6.653h126.706c3.629 0 6.653-3.024 6.653-6.653v0c0-3.629-3.024-6.653-6.653-6.653zM71.636 111.626v0c-22.982 0-41.832 18.85-41.832 41.832v0c0 22.982 18.85 41.832 41.832 41.832v0c22.982 0 41.832-18.85 41.832-41.832v0c-0.101-22.982-18.85-41.832-41.832-41.832z" />
<glyph unicode="&#xe90e;" glyph-name="icon_right" data-tags="icon_right" d="M378.6 209.033l-16.5-0.2-17.1 14c-1.6 1.3-1.3 1.8 0.7 1.4l29.5-7.7 3.4-7.5zM384.9 196.333l-6.3 12.7-16.5-0.2-23.6-0.4c-2 0-2.1-0.7-0.4-1.4l41.5-18.4 27.9-38.4-22.6 46.1zM407.8 150.033v0 0zM485.8 266.433l-26.1 10.2-53.7-68.1-36.6 23.8c-1.6 1.1-2.3 0.5-1.4-1.3l10.7-22 6.3-12.7 22.7-46.3 14.3 30.8 39.5 84.4h24c1.9 0 2.1 0.5 0.3 1.2zM56.7 184.233c-2.5 0-4.3 0.8-5.8 2.3-1.2 1.4-2.1 3.5-2.1 6.2v53.6h-17.4c-2.1 0-3.5 0.6-4.8 1.9-1 1.2-1.7 2.9-1.7 5 0 2.3 0.6 3.9 1.7 5 1 1.2 2.7 1.7 4.8 1.7h50.1c2.1 0 3.5-0.6 4.8-1.7 1-1.2 1.7-2.9 1.7-5s-0.6-3.7-1.7-5c-1-1.2-2.7-1.9-4.8-1.9h-17.4v-53.8c0-2.7-0.6-4.8-1.9-6.2-1.2-1.5-3-2.1-5.5-2.1v0zM93.5 184.233c-3.5 0-6.6 0.8-9.5 2.3-2.9 1.4-5 3.5-6.6 6-1.7 2.5-2.3 5.4-2.3 8.7 0 3.7 0.8 6.8 2.7 9.1s4.8 3.7 8.9 4.8c4.1 1 9.5 1.4 16.4 1.4h3.5v-8.3h-3.6c-3.3 0-6-0.2-8.1-0.6s-3.5-1-4.3-1.9c-0.8-0.8-1.2-2.3-1.2-3.7 0-2.1 0.6-3.5 1.9-5 1.2-1.2 3.1-1.9 5.6-1.9 1.9 0 3.5 0.4 5 1.4s2.7 2.3 3.5 3.9c0.8 1.7 1.2 3.5 1.2 5.6v12.2c0 3.1-0.6 5.4-2.1 6.6-1.2 1.2-3.5 1.9-6.6 1.9-1.9 0-3.7-0.2-5.8-0.6s-4.3-1.2-6.8-2.3c-1.4-0.6-2.7-0.8-3.9-0.4-1 0.4-2.1 1-2.5 2.1-0.6 1-0.8 2.1-0.8 3.3s0.4 2.5 1 3.5c0.6 1.2 1.7 2.1 3.3 2.7 3.1 1.2 6 2.3 8.7 2.7s5.2 0.8 7.5 0.8c5 0 9.1-0.8 12.4-2.5s5.6-3.9 7.2-7.2 2.5-7.5 2.5-12.6v-23.8c0-2.7-0.6-4.6-1.9-6s-2.9-2.1-5.2-2.1c-2.3 0-3.9 0.6-5.2 2.1s-1.9 3.5-1.9 6v0.6c-0.4-1.4-0.6-2.1-1.9-3.5-1.2-1.7-2.9-3.1-5-3.9-1.3-1-3.6-1.4-6.1-1.4zM142.8 259.133c-0.4 0.4-1 0.8-1.7 1.2-1 0.6-2.3 0.8-3.7 0.8-2.5 0-4.3-0.6-5.6-2.1-1.2-1.4-1.9-3.3-1.9-6v-60.6c0-2.7 0.6-4.8 1.9-6.2 1.2-1.4 3.1-2.1 5.6-2.1 1.4 0 2.7 0.2 3.7 0.8 0.6 0.4 1.2 0.8 1.7 1.2 1.2 1.4 1.9 3.3 1.9 6.2v60.4c-0.1 2.9-0.7 5-1.9 6.4zM165.1 259.133c-0.4 0.4-1 0.8-1.7 1.2-1 0.6-2.3 0.8-3.7 0.8-2.5 0-4.3-0.6-5.6-2.1s-1.9-3.3-1.9-6v-60.6c0-2.7 0.6-4.8 1.9-6.2 1.2-1.4 3.1-2.1 5.6-2.1 1.4 0 2.7 0.2 3.7 0.8 0.6 0.4 1.2 0.8 1.7 1.2 1.2 1.4 1.9 3.3 1.9 6.2v60.4c0 2.9-0.6 5-1.9 6.4zM191 165.433c-1.9 0-3.3 0.4-4.6 1.4s-1.9 2.3-2.1 3.9c-0.2 1.7 0 3.3 0.8 5l5.6 12.4-17 39.9c-0.6 1.9-0.8 3.5-0.6 5.2s1 2.9 2.3 3.7c1.2 1 3.1 1.4 5.4 1.4 1.9 0 3.3-0.4 4.6-1.2 1.2-0.8 2.3-2.5 3.1-5l10.6-27.5 11 27.7c1 2.5 2.1 4.1 3.3 5 1.2 0.8 2.9 1.2 5 1.2 1.9 0 3.3-0.4 4.3-1.4s1.7-2.3 2.1-3.7c0.2-1.7 0-3.3-0.8-5.2l-24.4-56.5c-1-2.5-2.3-3.9-3.5-5-1.6-0.9-3.2-1.3-5.1-1.3v0zM291.2 165.433c-1.9 0-3.3 0.4-4.6 1.4-1.2 1-1.9 2.3-2.1 3.9-0.2 1.7 0 3.3 0.8 5l5.6 12.4-17 39.7c-0.6 1.9-0.8 3.5-0.6 5.2s1 2.9 2.3 3.7c1.2 1 3.1 1.4 5.4 1.4 1.9 0 3.3-0.4 4.6-1.2 1.2-0.8 2.3-2.5 3.1-5l10.6-27.5 11 27.7c1 2.5 2.1 4.1 3.3 5 1.2 0.8 2.9 1.2 5 1.2 1.9 0 3.3-0.4 4.3-1.4s1.7-2.3 2.1-3.7c0.2-1.7 0-3.3-0.8-5.2l-24.4-56.5c-1-2.5-2.3-3.9-3.5-5-1.6-0.7-3.3-1.1-5.1-1.1v0zM245.6 184.233c-2.7 0-4.8 0.6-6.2 2.1-1.4 1.4-2.1 3.5-2.1 6v32.9h-3.9c-2.1 0-3.7 0.6-4.8 1.7-1 1-1.7 2.5-1.7 4.3 0 2.1 0.6 3.5 1.7 4.6 1 1 2.7 1.4 4.8 1.4h3.9c0 7.7 1.9 12.2 5.8 15.9s9.7 6 17.4 6.8l3.5 0.4c1.9 0.2 3.5-0.2 4.6-0.8 1-0.6 1.9-1.7 2.3-2.7s0.4-2.3 0.2-3.5c-0.2-1.2-0.6-2.3-1.4-3.1s-1.9-1.4-3.1-1.4l-1.4-0.2c-3.9-0.2-6.8-1.2-8.5-2.7-1.7-1.4-2.5-3.9-2.5-7v-1.9h7.9c2.1 0 3.7-0.4 4.8-1.4 1-1 1.7-2.5 1.7-4.6 0-1.9-0.6-3.3-1.7-4.3-1-1-2.7-1.7-4.8-1.7h-7.9v-32.9c-0.3-5.2-3-7.9-8.6-7.9v0z" />
<glyph unicode="&#xe90f;" glyph-name="Ascending" data-tags="asc" d="M269.056 429.909c-1.536 3.072-4.608 5.12-8.192 5.12 0 0 0 0 0 0h-10.752c-3.328 0-6.656-2.048-8.192-5.12l-88.064-185.088c-1.28-2.816-1.024-6.144 0.512-8.704s4.608-4.096 7.68-4.096h13.312c3.584 0 6.656 2.048 8.192 5.12l23.040 48.384h99.072l23.296-48.384c1.536-3.072 4.608-5.12 8.192-5.12h13.312c0 0 0 0 0 0 4.864 0 8.96 4.096 8.96 8.96 0 1.536-0.512 3.072-1.28 4.352l-89.088 184.576zM220.416 315.221l35.072 73.472 35.328-73.472h-70.4zM334.848 184.661l-4.864 9.472c-1.536 3.072-4.608 4.864-7.936 4.864h-133.632c-4.864 0-8.96-4.096-8.96-8.96v-12.032c0-4.864 4.096-8.96 8.96-8.96h103.936l-114.432-153.6c-2.048-2.816-2.304-6.4-0.768-9.472l4.864-9.472c1.536-3.072 4.608-4.864 7.936-4.864h133.12c4.864 0 8.96 4.096 8.96 8.96v12.032c0 4.864-4.096 8.96-8.96 8.96h-103.424l114.432 153.6c2.048 2.816 2.304 6.4 0.768 9.472z" />
<glyph unicode="&#xe910;" glyph-name="icon_left" data-tags="icon_left" d="M66.6 209.033l-16.5-0.2-17.1 14c-1.6 1.3-1.3 1.8 0.7 1.4l29.5-7.7 3.4-7.5zM72.9 196.333l-6.3 12.7-16.5-0.2-23.6-0.4c-2 0-2.1-0.7-0.4-1.4l41.5-18.4 27.9-38.4-22.6 46.1zM95.8 150.033v0 0zM173.8 266.433l-26.1 10.2-53.7-68.1-36.6 23.8c-1.6 1.1-2.3 0.5-1.4-1.3l10.7-22 6.3-12.7 22.7-46.3 14.3 30.8 39.5 84.4h24c1.9 0 2.1 0.5 0.3 1.2zM218.7 184.233c-2.5 0-4.3 0.8-5.8 2.3-1.2 1.4-2.1 3.5-2.1 6.2v53.6h-17.4c-2.1 0-3.5 0.6-4.8 1.9-1 1.2-1.7 2.9-1.7 5 0 2.3 0.6 3.9 1.7 5 1 1.2 2.7 1.7 4.8 1.7h50.1c2.1 0 3.5-0.6 4.8-1.7 1-1.2 1.7-2.9 1.7-5s-0.6-3.7-1.7-5c-1-1.2-2.7-1.9-4.8-1.9h-17.4v-53.8c0-2.7-0.6-4.8-1.9-6.2-1.2-1.5-3-2.1-5.5-2.1v0zM255.5 184.233c-3.5 0-6.6 0.8-9.5 2.3-2.9 1.4-5 3.5-6.6 6-1.7 2.5-2.3 5.4-2.3 8.7 0 3.7 0.8 6.8 2.7 9.1s4.8 3.7 8.9 4.8c4.1 1 9.5 1.4 16.4 1.4h3.5v-8.3h-3.6c-3.3 0-6-0.2-8.1-0.6s-3.5-1-4.3-1.9c-0.8-0.8-1.2-2.3-1.2-3.7 0-2.1 0.6-3.5 1.9-5 1.2-1.2 3.1-1.9 5.6-1.9 1.9 0 3.5 0.4 5 1.4 1.4 1 2.7 2.3 3.5 3.9 0.8 1.7 1.2 3.5 1.2 5.6v12.2c0 3.1-0.6 5.4-2.1 6.6-1.2 1.2-3.5 1.9-6.6 1.9-1.9 0-3.7-0.2-5.8-0.6s-4.3-1.2-6.8-2.3c-1.4-0.6-2.7-0.8-3.9-0.4-1 0.4-2.1 1-2.5 2.1-0.6 1-0.8 2.1-0.8 3.3s0.4 2.5 1 3.5c0.6 1.2 1.7 2.1 3.3 2.7 3.1 1.2 6 2.3 8.7 2.7s5.2 0.8 7.5 0.8c5 0 9.1-0.8 12.4-2.5s5.6-3.9 7.2-7.2 2.5-7.5 2.5-12.6v-23.8c0-2.7-0.6-4.6-1.9-6s-2.9-2.1-5.2-2.1c-2.3 0-3.9 0.6-5.2 2.1-1.2 1.4-1.9 3.5-1.9 6v0.6c-0.4-1.4-0.6-2.1-1.9-3.5-1.2-1.7-2.9-3.1-5-3.9-1.3-1-3.6-1.4-6.1-1.4zM304.8 259.133c-0.4 0.4-1 0.8-1.7 1.2-1 0.6-2.3 0.8-3.7 0.8-2.5 0-4.3-0.6-5.6-2.1s-1.9-3.3-1.9-6v-60.6c0-2.7 0.6-4.8 1.9-6.2s3.1-2.1 5.6-2.1c1.4 0 2.7 0.2 3.7 0.8 0.6 0.4 1.2 0.8 1.7 1.2 1.2 1.4 1.9 3.3 1.9 6.2v60.4c-0.1 2.9-0.7 5-1.9 6.4zM327.1 259.133c-0.4 0.4-1 0.8-1.7 1.2-1 0.6-2.3 0.8-3.7 0.8-2.5 0-4.3-0.6-5.6-2.1-1.2-1.4-1.9-3.3-1.9-6v-60.6c0-2.7 0.6-4.8 1.9-6.2s3.1-2.1 5.6-2.1c1.4 0 2.7 0.2 3.7 0.8 0.6 0.4 1.2 0.8 1.7 1.2 1.2 1.4 1.9 3.3 1.9 6.2v60.4c0 2.9-0.6 5-1.9 6.4zM353 165.433c-1.9 0-3.3 0.4-4.6 1.4-1.2 1-1.9 2.3-2.1 3.9-0.2 1.7 0 3.3 0.8 5l5.6 12.4-17 39.9c-0.6 1.9-0.8 3.5-0.6 5.2s1 2.9 2.3 3.7c1.2 1 3.1 1.4 5.4 1.4 1.9 0 3.3-0.4 4.6-1.2 1.2-0.8 2.3-2.5 3.1-5l10.6-27.5 11 27.7c1 2.5 2.1 4.1 3.3 5 1.2 0.8 2.9 1.2 5 1.2 1.9 0 3.3-0.4 4.3-1.4s1.7-2.3 2.1-3.7c0.2-1.7 0-3.3-0.8-5.2l-24.4-56.5c-1-2.5-2.3-3.9-3.5-5-1.6-0.9-3.2-1.3-5.1-1.3v0zM453.2 165.433c-1.9 0-3.3 0.4-4.6 1.4-1.2 1-1.9 2.3-2.1 3.9-0.2 1.7 0 3.3 0.8 5l5.6 12.4-17 39.7c-0.6 1.9-0.8 3.5-0.6 5.2s1 2.9 2.3 3.7c1.2 1 3.1 1.4 5.4 1.4 1.9 0 3.3-0.4 4.6-1.2 1.2-0.8 2.3-2.5 3.1-5l10.6-27.5 11 27.7c1 2.5 2.1 4.1 3.3 5 1.2 0.8 2.9 1.2 5 1.2 1.9 0 3.3-0.4 4.3-1.4s1.7-2.3 2.1-3.7c0.2-1.7 0-3.3-0.8-5.2l-24.4-56.5c-1-2.5-2.3-3.9-3.5-5-1.6-0.7-3.3-1.1-5.1-1.1v0zM407.6 184.233c-2.7 0-4.8 0.6-6.2 2.1-1.4 1.4-2.1 3.5-2.1 6v32.9h-3.9c-2.1 0-3.7 0.6-4.8 1.7-1 1-1.7 2.5-1.7 4.3 0 2.1 0.6 3.5 1.7 4.6 1 1 2.7 1.4 4.8 1.4h3.9c0 7.7 1.9 12.2 5.8 15.9s9.7 6 17.4 6.8l3.5 0.4c1.9 0.2 3.5-0.2 4.6-0.8 1-0.6 1.9-1.7 2.3-2.7s0.4-2.3 0.2-3.5c-0.2-1.2-0.6-2.3-1.4-3.1s-1.9-1.4-3.1-1.4l-1.4-0.2c-3.9-0.2-6.8-1.2-8.5-2.7-1.7-1.4-2.5-3.9-2.5-7v-1.9h7.9c2.1 0 3.7-0.4 4.8-1.4 1-1 1.7-2.5 1.7-4.6 0-1.9-0.6-3.3-1.7-4.3-1-1-2.7-1.7-4.8-1.7h-7.9v-32.9c-0.3-5.2-3-7.9-8.6-7.9v0z" />
<glyph unicode="&#xe911;" glyph-name="Descending" data-tags="desc" d="M269.056 189.781c-1.536 3.072-4.608 5.12-8.192 5.12 0 0 0 0 0 0h-10.752c-3.328 0-6.656-2.048-8.192-5.12l-88.32-185.088c-1.28-2.816-1.024-6.144 0.512-8.704s4.608-4.096 7.68-4.096h13.312c3.584 0 6.656 2.048 8.192 5.12l23.040 48.384h99.072l23.296-48.384c1.536-3.072 4.608-5.12 8.192-5.12h13.312c0 0 0 0 0 0 4.864 0 8.96 4.096 8.96 8.96 0 1.536-0.512 3.072-1.28 4.352l-88.832 184.576zM220.416 75.093l35.072 73.472 35.328-73.472h-70.4zM334.848 420.437l-4.864 9.472c-1.536 3.072-4.608 4.864-7.936 4.864h-133.632c-4.864 0-8.96-4.096-8.96-8.96v-12.032c0-4.864 4.096-8.96 8.96-8.96h103.936l-114.432-153.6c-2.048-2.816-2.304-6.4-0.768-9.472l4.864-9.472c1.536-3.072 4.608-4.864 7.936-4.864h133.12c4.864 0 8.96 4.096 8.96 8.96v12.032c0 4.864-4.096 8.96-8.96 8.96h-103.424l114.432 153.6c2.048 2.816 2.304 6.4 0.768 9.472z" />
<glyph unicode="&#xe912;" glyph-name="LeftTestimonial" data-tags="icon_right_customer" d="M32 165.533c0-8.067 6.466-14.534 14.534-14.534h228.733c8.067 0 14.534 6.466 14.534 14.534v44.067l37.733 35.667-37.733-6.2v22.066c0 8.067-6.466 14.534-14.534 14.534h-228.733c-8.066 0-14.534-6.466-14.534-14.534v-95.6zM487.067 213.333c0-34.425-27.908-62.334-62.334-62.334s-62.334 27.907-62.334 62.334c0 34.426 27.908 62.334 62.334 62.334s62.334-27.907 62.334-62.334z" />
<glyph unicode="&#xe913;" glyph-name="RignTestimonial" data-tags="icon_left_customer" d="M487.067 261.133c0 8.067-6.466 14.534-14.534 14.534h-228.733c-8.066 0-14.534-6.466-14.534-14.534v-22.066l-37.733 6.2 37.733-35.667v-44.067c0-8.067 6.466-14.534 14.534-14.534h228.733c8.067 0 14.534 6.466 14.534 14.534v95.6zM156.667 213.333c0-34.425-27.907-62.334-62.334-62.334s-62.334 27.907-62.334 62.334c0 34.426 27.907 62.334 62.334 62.334s62.334-27.907 62.334-62.334z" />
<glyph unicode="&#xe91b;" glyph-name="icon_bot" data-tags="icon_bot" d="M205.7 153.733l-21.9-0.2-22.9 18.6c-2.1 1.7-1.7 2.4 1 1.9l39.3-10.3 4.5-10zM214.1 136.733l-8.3 16.9-21.9-0.2-31.5-0.5c-2.6 0-2.9-1-0.5-1.9l55.3-24.6 37.2-51.3-30.3 61.6zM244.6 75.033v0 0zM348.5 230.233l-34.8 13.6-71.5-90.8-48.9 31.7c-2.1 1.4-3.1 0.7-1.9-1.7l14.3-29.3 8.3-16.9 30.3-61.8 19.1 41 52.7 112.5h31.9c2.7 0 2.9 0.7 0.5 1.7zM137.7 274.633c-2.5 0-4.3 0.8-5.8 2.3-1.2 1.4-2.1 3.5-2.1 6.2v53.6h-17.4c-2.1 0-3.5 0.6-4.8 1.9-1 1.2-1.7 2.9-1.7 5 0 2.3 0.6 3.9 1.7 5 1 1.2 2.7 1.7 4.8 1.7h50.1c2.1 0 3.5-0.6 4.8-1.7 1-1.2 1.7-2.9 1.7-5s-0.6-3.7-1.7-5c-1-1.2-2.7-1.9-4.8-1.9h-17.4v-53.8c0-2.7-0.6-4.8-1.9-6.2-1.2-1.5-3-2.1-5.5-2.1v0zM174.5 274.633c-3.5 0-6.6 0.8-9.5 2.3-2.9 1.4-5 3.5-6.6 6-1.7 2.5-2.3 5.4-2.3 8.7 0 3.7 0.8 6.8 2.7 9.1s4.8 3.7 8.9 4.8c4.1 1 9.5 1.4 16.4 1.4h3.5v-8.3h-3.6c-3.3 0-6-0.2-8.1-0.6s-3.5-1-4.3-1.9c-0.8-0.8-1.2-2.3-1.2-3.7 0-2.1 0.6-3.5 1.9-5 1.2-1.2 3.1-1.9 5.6-1.9 1.9 0 3.5 0.4 5 1.4 1.4 1 2.7 2.3 3.5 3.9 0.8 1.7 1.2 3.5 1.2 5.6v12.2c0 3.1-0.6 5.4-2.1 6.6-1.2 1.2-3.5 1.9-6.6 1.9-1.9 0-3.7-0.2-5.8-0.6s-4.3-1.2-6.8-2.3c-1.4-0.6-2.7-0.8-3.9-0.4-1 0.4-2.1 1-2.5 2.1-0.6 1-0.8 2.1-0.8 3.3s0.4 2.5 1 3.5c0.6 1.2 1.7 2.1 3.3 2.7 3.1 1.2 6 2.3 8.7 2.7s5.2 0.8 7.5 0.8c5 0 9.1-0.8 12.4-2.5s5.6-3.9 7.2-7.2c1.7-3.3 2.5-7.5 2.5-12.6v-23.8c0-2.7-0.6-4.6-1.9-6-1.2-1.4-2.9-2.1-5.2-2.1s-3.9 0.6-5.2 2.1c-1.2 1.4-1.9 3.5-1.9 6v0.6c-0.4-1.4-0.6-2.1-1.9-3.5-1.2-1.7-2.9-3.1-5-3.9-1.3-1-3.6-1.4-6.1-1.4zM223.8 349.633c-0.4 0.4-1 0.8-1.7 1.2-1 0.6-2.3 0.8-3.7 0.8-2.5 0-4.3-0.6-5.6-2.1-1.2-1.4-1.9-3.3-1.9-6v-60.6c0-2.7 0.6-4.8 1.9-6.2 1.2-1.4 3.1-2.1 5.6-2.1 1.4 0 2.7 0.2 3.7 0.8 0.6 0.4 1.2 0.8 1.7 1.2 1.2 1.4 1.9 3.3 1.9 6.2v60.5c-0.1 2.7-0.7 4.8-1.9 6.3zM246.1 349.633c-0.4 0.4-1 0.8-1.7 1.2-1 0.6-2.3 0.8-3.7 0.8-2.5 0-4.3-0.6-5.6-2.1s-1.9-3.3-1.9-6v-60.6c0-2.7 0.6-4.8 1.9-6.2 1.2-1.4 3.1-2.1 5.6-2.1 1.4 0 2.7 0.2 3.7 0.8 0.6 0.4 1.2 0.8 1.7 1.2 1.2 1.4 1.9 3.3 1.9 6.2v60.5c0 2.7-0.6 4.8-1.9 6.3zM272 255.833c-1.9 0-3.3 0.4-4.6 1.4-1.2 1-1.9 2.3-2.1 3.9-0.2 1.7 0 3.3 0.8 5l5.6 12.4-17 39.9c-0.6 1.9-0.8 3.5-0.6 5.2s1 2.9 2.3 3.7c1.2 1 3.1 1.4 5.4 1.4 1.9 0 3.3-0.4 4.6-1.2 1.2-0.8 2.3-2.5 3.1-5l10.6-27.5 11 27.7c1 2.5 2.1 4.1 3.3 5 1.2 0.8 2.9 1.2 5 1.2 1.9 0 3.3-0.4 4.3-1.4s1.7-2.3 2.1-3.7c0.2-1.7 0-3.3-0.8-5.2l-24.4-56.5c-1-2.5-2.3-3.9-3.5-5-1.6-0.9-3.2-1.3-5.1-1.3v0zM372.2 255.833c-1.9 0-3.3 0.4-4.6 1.4-1.2 1-1.9 2.3-2.1 3.9-0.2 1.7 0 3.3 0.8 5l5.6 12.4-16.9 39.8c-0.6 1.9-0.8 3.5-0.6 5.2s1 2.9 2.3 3.7c1.2 1 3.1 1.4 5.4 1.4 1.9 0 3.3-0.4 4.6-1.2 1.2-0.8 2.3-2.5 3.1-5l10.6-27.5 11 27.7c1 2.5 2.1 4.1 3.3 5 1.2 0.8 2.9 1.2 5 1.2 1.9 0 3.3-0.4 4.3-1.4s1.7-2.3 2.1-3.7c0.2-1.7 0-3.3-0.8-5.2l-24.4-56.5c-1-2.5-2.3-3.9-3.5-5-1.7-0.8-3.4-1.2-5.2-1.2v0zM326.6 274.633c-2.7 0-4.8 0.6-6.2 2.1s-2.1 3.5-2.1 6v32.9h-3.9c-2.1 0-3.7 0.6-4.8 1.7-1 1-1.7 2.5-1.7 4.3 0 2.1 0.6 3.5 1.7 4.6 1 1 2.7 1.4 4.8 1.4h3.9c0 7.7 1.9 12.2 5.8 15.9s9.7 6 17.4 6.8l3.5 0.4c1.9 0.2 3.5-0.2 4.6-0.8s1.9-1.7 2.3-2.7c0.4-1 0.4-2.3 0.2-3.5s-0.6-2.3-1.4-3.1c-0.8-0.8-1.9-1.4-3.1-1.4l-1.4-0.2c-3.9-0.2-6.8-1.2-8.5-2.7-1.7-1.4-2.5-3.9-2.5-7v-1.9h7.9c2.1 0 3.7-0.4 4.8-1.4 1-1 1.7-2.5 1.7-4.6 0-1.9-0.6-3.3-1.7-4.3-1-1-2.7-1.7-4.8-1.7h-7.9v-32.9c-0.3-5.2-3-7.9-8.6-7.9v0z" />
<glyph unicode="&#xe926;" glyph-name="icon_top" data-tags="icon_top" d="M211.5 261.533l-21.9-0.2-22.9 18.6c-2.1 1.7-1.7 2.4 1 1.9l39.3-10.3 4.5-10zM219.9 244.633l-8.3 16.9-21.9-0.2-31.5-0.5c-2.6 0-2.9-1-0.5-1.9l55.3-24.6 37.2-51.3-30.3 61.6zM250.4 182.833v0 0zM354.4 338.033l-34.8 13.6-71.6-90.8-48.9 31.7c-2.1 1.4-3.1 0.7-1.9-1.7l14.3-29.3 8.3-16.9 30.3-61.8 19.1 41 52.7 112.5h31.9c2.7 0.1 2.9 0.8 0.6 1.7zM137.7 93.833c-2.5 0-4.3 0.8-5.8 2.3-1.2 1.4-2.1 3.5-2.1 6.2v53.6h-17.4c-2.1 0-3.5 0.6-4.8 1.9-1 1.2-1.7 2.9-1.7 5 0 2.3 0.6 3.9 1.7 5 1 1.2 2.7 1.7 4.8 1.7h50.1c2.1 0 3.5-0.6 4.8-1.7 1-1.2 1.7-2.9 1.7-5s-0.6-3.7-1.7-5c-1-1.2-2.7-1.9-4.8-1.9h-17.4v-53.8c0-2.7-0.6-4.8-1.9-6.2s-3-2.1-5.5-2.1v0zM174.5 93.833c-3.5 0-6.6 0.8-9.5 2.3-2.9 1.4-5 3.5-6.6 6-1.7 2.5-2.3 5.4-2.3 8.7 0 3.7 0.8 6.8 2.7 9.1s4.8 3.7 8.9 4.8c4.1 1 9.5 1.4 16.4 1.4h3.5v-8.3h-3.6c-3.3 0-6-0.2-8.1-0.6s-3.5-1-4.3-1.9c-0.8-0.8-1.2-2.3-1.2-3.7 0-2.1 0.6-3.5 1.9-5 1.2-1.2 3.1-1.9 5.6-1.9 1.9 0 3.5 0.4 5 1.4 1.4 1 2.7 2.3 3.5 3.9 0.8 1.7 1.2 3.5 1.2 5.6v12.2c0 3.1-0.6 5.4-2.1 6.6-1.2 1.2-3.5 1.9-6.6 1.9-1.9 0-3.7-0.2-5.8-0.6s-4.3-1.2-6.8-2.3c-1.4-0.6-2.7-0.8-3.9-0.4-1 0.4-2.1 1-2.5 2.1-0.6 1-0.8 2.1-0.8 3.3s0.4 2.5 1 3.5c0.6 1.2 1.7 2.1 3.3 2.7 3.1 1.2 6 2.3 8.7 2.7s5.2 0.8 7.5 0.8c5 0 9.1-0.8 12.4-2.5s5.6-3.9 7.2-7.2c1.7-3.3 2.5-7.5 2.5-12.6v-23.8c0-2.7-0.6-4.6-1.9-6s-2.9-2.1-5.2-2.1c-2.3 0-3.9 0.6-5.2 2.1s-1.9 3.5-1.9 6v0.6c-0.4-1.4-0.6-2.1-1.9-3.5-1.2-1.7-2.9-3.1-5-3.9-1.3-1-3.6-1.4-6.1-1.4zM223.8 168.733c-0.4 0.4-1 0.8-1.7 1.2-1 0.6-2.3 0.8-3.7 0.8-2.5 0-4.3-0.6-5.6-2.1-1.2-1.4-1.9-3.3-1.9-6v-60.6c0-2.7 0.6-4.8 1.9-6.2 1.2-1.4 3.1-2.1 5.6-2.1 1.4 0 2.7 0.2 3.7 0.8 0.6 0.4 1.2 0.8 1.7 1.2 1.2 1.4 1.9 3.3 1.9 6.2v60.4c-0.1 2.9-0.7 5-1.9 6.4zM246.1 168.733c-0.4 0.4-1 0.8-1.7 1.2-1 0.6-2.3 0.8-3.7 0.8-2.5 0-4.3-0.6-5.6-2.1-1.2-1.4-1.9-3.3-1.9-6v-60.6c0-2.7 0.6-4.8 1.9-6.2 1.2-1.4 3.1-2.1 5.6-2.1 1.4 0 2.7 0.2 3.7 0.8 0.6 0.4 1.2 0.8 1.7 1.2 1.2 1.4 1.9 3.3 1.9 6.2v60.4c0 2.9-0.6 5-1.9 6.4zM272 75.033c-1.9 0-3.3 0.4-4.6 1.4-1.2 1-1.9 2.3-2.1 3.9-0.2 1.7 0 3.3 0.8 5l5.6 12.4-17 39.9c-0.6 1.9-0.8 3.5-0.6 5.2s1 2.9 2.3 3.7c1.2 1 3.1 1.4 5.4 1.4 1.9 0 3.3-0.4 4.6-1.2 1.2-0.8 2.3-2.5 3.1-5l10.6-27.5 11 27.7c1 2.5 2.1 4.1 3.3 5 1.2 0.8 2.9 1.2 5 1.2 1.9 0 3.3-0.4 4.3-1.4s1.7-2.3 2.1-3.7c0.2-1.7 0-3.3-0.8-5.2l-24.4-56.5c-1-2.5-2.3-3.9-3.5-5-1.6-0.9-3.2-1.3-5.1-1.3v0zM372.2 75.033c-1.9 0-3.3 0.4-4.6 1.4-1.2 1-1.9 2.3-2.1 3.9-0.2 1.7 0 3.3 0.8 5l5.6 12.4-17 39.7c-0.6 1.9-0.8 3.5-0.6 5.2s1 2.9 2.3 3.7c1.2 1 3.1 1.4 5.4 1.4 1.9 0 3.3-0.4 4.6-1.2 1.2-0.8 2.3-2.5 3.1-5l10.6-27.5 11 27.7c1 2.5 2.1 4.1 3.3 5 1.2 0.8 2.9 1.2 5 1.2 1.9 0 3.3-0.4 4.3-1.4s1.7-2.3 2.1-3.7c0.2-1.7 0-3.3-0.8-5.2l-24.4-56.5c-1-2.5-2.3-3.9-3.5-5-1.6-0.7-3.3-1.1-5.1-1.1v0zM326.6 93.833c-2.7 0-4.8 0.6-6.2 2.1-1.4 1.4-2.1 3.5-2.1 6v32.9h-3.9c-2.1 0-3.7 0.6-4.8 1.7-1 1-1.7 2.5-1.7 4.3 0 2.1 0.6 3.5 1.7 4.6 1 1 2.7 1.4 4.8 1.4h3.9c0 7.7 1.9 12.2 5.8 15.9s9.7 6 17.4 6.8l3.5 0.4c1.9 0.2 3.5-0.2 4.6-0.8 1-0.6 1.9-1.7 2.3-2.7s0.4-2.3 0.2-3.5c-0.2-1.2-0.6-2.3-1.4-3.1s-1.9-1.4-3.1-1.4l-1.4-0.2c-3.9-0.2-6.8-1.2-8.5-2.7-1.7-1.4-2.5-3.9-2.5-7v-1.9h7.9c2.1 0 3.7-0.4 4.8-1.4 1-1 1.7-2.5 1.7-4.6 0-1.9-0.6-3.3-1.7-4.3-1-1-2.7-1.7-4.8-1.7h-7.9v-32.9c-0.3-5.2-3-7.9-8.6-7.9v0z" />
<glyph unicode="&#xf0ca;" glyph-name="list-ul" data-tags="list-ul" d="M109.715 67.048c0-30.286-24.572-54.857-54.857-54.857s-54.857 24.572-54.857 54.857 24.572 54.857 54.857 54.857 54.857-24.572 54.857-54.857zM109.715 213.333c0-30.286-24.572-54.857-54.857-54.857s-54.857 24.572-54.857 54.857 24.572 54.857 54.857 54.857 54.857-24.571 54.857-54.857zM512 94.476v-54.857c0-4.857-4.286-9.143-9.143-9.143h-347.428c-4.857 0-9.143 4.286-9.143 9.143v54.857c0 4.857 4.286 9.143 9.143 9.143h347.428c4.857 0 9.143-4.286 9.143-9.143zM109.715 359.619c0-30.285-24.572-54.857-54.857-54.857s-54.857 24.572-54.857 54.857 24.572 54.857 54.857 54.857 54.857-24.572 54.857-54.857zM512 240.762v-54.857c0-4.857-4.286-9.143-9.143-9.143h-347.428c-4.857 0-9.143 4.286-9.143 9.143v54.857c0 4.857 4.286 9.143 9.143 9.143h347.428c4.857 0 9.143-4.286 9.143-9.143zM512 387.048v-54.857c0-4.857-4.286-9.143-9.143-9.143h-347.428c-4.857 0-9.143 4.286-9.143 9.143v54.857c0 4.857 4.286 9.143 9.143 9.143h347.428c4.857 0 9.143-4.285 9.143-9.143z" />
<glyph unicode="&#xf0cb;" glyph-name="list-ol" data-tags="list-ol" horiz-adv-x="516" d="M108.857 6.476c0-31.428-24.572-49.143-54.285-49.143-18 0-36.285 6-49.143 18.857l16.285 25.143c7.715-7.143 19.428-12.857 30.285-12.857 10 0 20.572 4.857 20.572 16.286 0 16-18.285 16.857-30 16l-7.428 16c10.285 13.143 19.715 27.714 32 38.857v0.286c-9.143 0-18.572-0.572-27.715-0.572v-15.143h-30.285v43.428h95.143v-25.143l-27.143-32.857c19.143-4.572 31.715-19.428 31.715-39.143zM109.428 185.619v-45.428h-103.428c-0.857 5.143-1.715 10.286-1.715 15.428 0 52.857 64.572 60.857 64.572 84.857 0 9.714-6 14.857-15.428 14.857-10 0-18.285-8.572-23.143-16.572l-24.285 16.857c9.428 19.715 28.857 30.857 50.572 30.857 26.572 0 49.428-15.714 49.428-44 0-42.286-62-51.715-62.857-74h36.285v17.143h30zM512 94.476v-54.857c0-4.857-4.286-9.143-9.143-9.143h-347.428c-5.143 0-9.143 4.286-9.143 9.143v54.857c0 5.143 4 9.143 9.143 9.143h347.428c4.857 0 9.143-4 9.143-9.143zM109.715 351.333v-28.286h-95.715v28.286h30.572c0 23.143 0.285 46.286 0.285 69.428v3.429h-0.572c-3.143-6.286-8.857-10.572-14.285-15.428l-20.285 21.714 38.857 36.285h30.285v-115.428h30.857zM512 240.762v-54.857c0-4.857-4.286-9.143-9.143-9.143h-347.428c-5.143 0-9.143 4.286-9.143 9.143v54.857c0 5.143 4 9.143 9.143 9.143h347.428c4.857 0 9.143-4 9.143-9.143zM512 387.048v-54.857c0-4.857-4.286-9.143-9.143-9.143h-347.428c-5.143 0-9.143 4.286-9.143 9.143v54.857c0 4.857 4 9.143 9.143 9.143h347.428c4.857 0 9.143-4.285 9.143-9.143z" />
<glyph unicode="&#xf162;" glyph-name="sort-numeric-asc" data-tags="sort-numeric-asc" horiz-adv-x="433" d="M384.572 94.19c0 23.428-19.143 48.286-42 48.286-20 0-32.572-16.286-32.572-37.428 0-20.572 13.143-38 40.286-38 18.572 0 34.286 11.143 34.286 27.143zM210.286 57.905c0-2.572-1.143-4.857-2.857-6.857l-91.143-91.143c-2-1.715-4.285-2.572-6.572-2.572s-4.572 0.857-6.572 2.572l-91.428 91.428c-2.572 2.857-3.428 6.572-2 10s4.857 5.714 8.572 5.714h54.857v393.143c0 5.143 4 9.143 9.143 9.143h54.857c5.143 0 9.143-4 9.143-9.143v-393.143h54.857c5.143 0 9.143-4 9.143-9.143zM424.572 77.619c0-57.714-31.428-120.285-99.428-120.285-12.857 0-23.428 2-30.857 4.572-4.572 1.428-8.572 2.857-12 4.285l11.143 32.286c2.572-1.143 5.714-2.286 8.857-3.143 5.714-2 13.143-3.714 21.428-3.714 34.286 0 52 28.572 57.428 58.286h-0.572c-8-8.572-24.857-14.572-41.714-14.572-41.428 0-68.572 32.572-68.572 69.714 0 39.428 30.286 71.714 72.286 71.714 45.428 0 82-37.143 82-99.143zM416 282.476v-32.571h-134v32.572h47.714v123.428c0 3.714 0.286 7.428 0.286 10.285v4.572h-0.572l-2-3.428c-1.428-2.286-3.714-5.143-7.428-8.857l-17.714-16.572-23.428 24.571 54.857 52.857h35.143v-186.857h47.143z" />
</font>
</defs>
</svg>
